<?xml version="1.0" encoding="UTF-8"?>
<svg width="208px" height="34px" viewBox="0 0 208 34" version="1.1" xmlns="http://www.w3.org/2000/svg" xmlns:xlink="http://www.w3.org/1999/xlink">
    <!-- Generator: Sketch 56.3 (81716) - https://sketch.com -->
    <title>编组</title>
    <desc>Created with Sketch.</desc>
    <g id="修改" stroke="none" stroke-width="1" fill="none" fill-rule="evenodd">
        <g transform="translate(-195.000000, -15.000000)" id="编组">
            <g transform="translate(195.000000, 15.000000)">
                <polygon id="Fill-1" fill="#FFFFFF" points="50.7735 0.1366 50.7735 31.9556 62.2815 31.9556 62.2815 28.5706 56.1885 28.5706 56.1885 3.5226 62.2815 3.5226 62.2815 0.1366"></polygon>
                <path d="M11.531,0.1367 C13.365,2.7877 14.733,5.4257 15.632,8.0477 C16.532,10.6707 16.982,13.3297 16.982,16.0287 C16.982,18.7387 16.535,21.3987 15.641,24.0087 C14.747,26.6197 13.377,29.2687 11.531,31.9547 L6.884,31.9547 C8.416,29.1637 9.554,26.4567 10.297,23.8337 C11.04,21.2117 11.411,18.6107 11.411,16.0287 C11.411,13.4237 11.04,10.8187 10.297,8.2137 C9.554,5.6087 8.416,2.9157 6.884,0.1367 L11.531,0.1367 Z" id="Fill-2" fill="#FFFFFF"></path>
                <polygon id="Fill-4" fill="#006EFF" points="0 31.955 4.062 31.955 4.062 0.137 0 0.137"></polygon>
                <polygon id="Fill-6" fill="#FFFFFF" points="25.0481 31.9551 30.4641 31.9551 37.2341 0.1371 31.8181 0.1371"></polygon>
                <polygon id="Fill-7" fill="#FFFFFF" points="39.2644 9.6147 43.3264 9.6147 46.7114 0.1367 41.2954 0.1367"></polygon>
                <polygon id="Fill-8" fill="#FFFFFF" points="20.9861 9.6147 25.0481 9.6147 28.4331 0.1367 23.0171 0.1367"></polygon>
                <polygon id="Fill-9" fill="#FFFFFF" points="106.1326 24.8545 106.1326 25.6195 108.5496 25.6195 108.5496 31.8495 109.3866 31.8495 109.3866 25.6195 111.8036 25.6195 111.8036 24.8545"></polygon>
                <path d="M79.6282,28.3525 C79.6282,29.2255 79.4002,29.9445 78.9852,30.3735 C78.5452,30.8315 77.8262,31.0625 76.8482,31.0625 L75.3642,31.0625 L75.3642,25.6415 L76.8482,25.6415 C77.8262,25.6415 78.5452,25.8735 78.9852,26.3305 C79.4002,26.7595 79.6282,27.4775 79.6282,28.3525 M79.3862,25.6035 C78.8372,25.1345 77.9582,24.8545 77.0342,24.8545 L74.5262,24.8545 L74.5262,31.8495 L77.0342,31.8495 C77.9582,31.8495 78.8372,31.5695 79.3862,31.1005 C80.1032,30.4885 80.4522,29.5885 80.4522,28.3515 C80.4522,27.1155 80.1032,26.2155 79.3862,25.6035" id="Fill-10" fill="#FFFFFF"></path>
                <path d="M119.5007,29.3779 C119.9067,29.3779 120.3697,29.4659 120.5157,29.4959 L120.5157,29.8189 C120.5157,30.2579 120.1207,31.2209 118.9487,31.2209 C118.3067,31.2209 117.8927,30.9419 117.8417,30.4759 C117.7587,29.7289 118.2557,29.5329 118.6967,29.4459 C118.9207,29.4019 119.1707,29.3779 119.5007,29.3779 M120.5647,31.2849 L120.5647,31.8529 L121.3367,31.8529 L121.3367,28.3239 C121.3367,27.2579 120.5817,26.5949 119.3667,26.5949 C118.9297,26.5949 118.0647,26.6899 117.3467,27.2079 L117.3467,27.9639 C117.3467,28.0059 117.3947,28.0289 117.4287,28.0049 C118.1767,27.4589 118.9677,27.3889 119.3167,27.3889 C119.7687,27.3889 120.5247,27.5059 120.5247,28.2879 L120.5247,28.7269 C120.3897,28.7139 119.8217,28.6479 119.2757,28.6479 C119.1027,28.6479 118.7397,28.6759 118.5057,28.7249 C117.8487,28.8609 116.9827,29.1869 117.0607,30.4289 C117.1367,31.6439 118.2317,31.9679 118.8677,31.9679 C119.5587,31.9679 120.1957,31.6959 120.5647,31.2849" id="Fill-11" fill="#FFFFFF"></path>
                <path d="M86.4192,31.292 C86.8132,31.601 87.7992,31.959 88.5232,31.973 C89.2822,31.973 89.8802,31.795 90.2372,31.444 C90.5932,31.095 90.6462,30.661 90.6462,30.435 C90.6462,29.801 90.2762,29.268 88.8762,28.912 C88.3062,28.775 87.3202,28.541 87.2552,28.066 C87.2342,27.915 87.2712,27.785 87.3622,27.68 C87.5612,27.45 87.9712,27.346 88.5232,27.346 C89.0622,27.346 89.8952,27.635 90.2352,27.829 C90.2692,27.848 90.3112,27.823 90.3112,27.784 L90.3112,26.982 C89.9132,26.837 89.2582,26.599 88.4062,26.599 C87.6522,26.599 87.0502,26.806 86.7102,27.182 C86.4832,27.434 86.3822,27.757 86.4192,28.116 C86.5202,29.092 87.6712,29.386 88.3972,29.569 C89.0442,29.73 89.8492,29.928 89.8092,30.48 C89.7742,30.971 89.3762,31.19 88.5182,31.19 C87.8152,31.19 86.9072,30.796 86.5052,30.386 C86.4742,30.354 86.4192,30.376 86.4192,30.422 L86.4192,31.292 Z" id="Fill-12" fill="#FFFFFF"></path>
                <polygon id="Fill-13" fill="#FFFFFF" points="91.543 25.959 92.39 25.959 92.39 24.857 91.543 24.857"></polygon>
                <polygon id="Fill-14" fill="#FFFFFF" points="91.543 31.85 92.39 31.85 92.39 26.719 91.543 26.719"></polygon>
                <path d="M140.3875,24.8438 C140.2565,24.7968 139.9745,24.6938 139.6755,24.6848 C139.2315,24.6698 138.8825,24.7818 138.6395,25.0168 C138.4005,25.2478 138.2735,25.6008 138.2735,26.0348 L138.2735,26.7188 L137.4735,26.7188 L137.4735,27.4668 L138.2735,27.4668 L138.2735,31.8538 L139.0825,31.8538 L139.0825,27.4668 L140.1765,27.4668 L140.1765,26.7188 L139.0825,26.7188 L139.0825,26.0838 C139.0825,25.8698 139.1385,25.7078 139.2495,25.6028 C139.3895,25.4708 139.5875,25.4498 139.7305,25.4588 C139.9255,25.4698 140.1665,25.5428 140.3115,25.6238 C140.3455,25.6438 140.3875,25.6188 140.3875,25.5798 L140.3875,24.8438 Z" id="Fill-15" fill="#FFFFFF"></path>
                <path d="M84.9114,28.8047 L81.7874,28.8047 L81.7884,28.7887 C81.8224,28.3437 82.0194,27.9597 82.3574,27.6797 C82.6274,27.4567 82.9834,27.3337 83.3604,27.3337 C84.2724,27.3337 84.8664,27.8917 84.9114,28.7897 L84.9114,28.8047 Z M85.4694,30.3937 C85.4694,30.3447 85.4074,30.3247 85.3774,30.3637 C85.0054,30.8537 84.1164,31.2487 83.5694,31.2487 C83.0474,31.2487 82.5564,31.0767 82.2874,30.7987 C81.9614,30.4627 81.7854,29.9997 81.7894,29.5247 L85.7024,29.5247 L85.7024,29.4637 C85.7024,28.3607 85.5144,27.7347 85.0314,27.2327 C84.6284,26.8127 84.0744,26.5997 83.3824,26.5997 C81.9184,26.5997 80.9734,27.6477 80.9734,29.2717 C81.0264,30.9597 81.9854,31.9687 83.5394,31.9687 C84.2804,31.9687 84.9074,31.7187 85.4694,31.2287 L85.4694,30.3937 Z" id="Fill-16" fill="#FFFFFF"></path>
                <path d="M115.4256,28.8047 L112.3016,28.8047 L112.3036,28.7887 C112.3366,28.3437 112.5336,27.9597 112.8716,27.6797 C113.1426,27.4567 113.4976,27.3337 113.8746,27.3337 C114.7866,27.3337 115.3806,27.8917 115.4256,28.7897 L115.4256,28.8047 Z M115.9836,30.3937 C115.9836,30.3447 115.9216,30.3247 115.8916,30.3637 C115.5206,30.8537 114.6306,31.2487 114.0836,31.2487 C113.5616,31.2487 113.0706,31.0767 112.8016,30.7987 C112.4766,30.4627 112.2996,29.9997 112.3036,29.5247 L116.2166,29.5247 L116.2166,29.4637 C116.2166,28.3607 116.0296,27.7347 115.5456,27.2327 C115.1436,26.8127 114.5876,26.5997 113.8976,26.5997 C112.4336,26.5997 111.4876,27.6477 111.4876,29.2717 C111.5406,30.9597 112.4996,31.9687 114.0546,31.9687 C114.7946,31.9687 115.4216,31.7187 115.9836,31.2287 L115.9836,30.3937 Z" id="Fill-17" fill="#FFFFFF"></path>
                <path d="M101.4822,26.6006 C100.8412,26.6006 100.2992,26.8146 99.9352,27.2066 L99.9352,26.7166 L99.1452,26.7166 L99.1452,31.8536 L99.9532,31.8536 L99.9532,28.9266 C99.9532,28.4436 100.1002,28.0326 100.3692,27.7686 C100.6582,27.4856 101.0162,27.3546 101.4612,27.3686 C102.0942,27.3866 102.7322,27.8066 102.7322,28.6996 L102.7322,31.8536 L103.5412,31.8536 L103.5412,28.6616 C103.5412,28.0286 103.3402,27.5006 102.9602,27.1356 C102.5942,26.7856 102.0832,26.6006 101.4822,26.6006" id="Fill-18" fill="#FFFFFF"></path>
                <path d="M127.5798,26.5996 C126.5598,26.5996 126.0808,27.2066 125.9268,27.4596 C125.8758,27.3666 125.7858,27.2246 125.6428,27.0826 C125.4188,26.8626 125.0178,26.5996 124.3768,26.5996 C123.8218,26.5996 123.3928,26.7746 123.0988,27.1206 L123.0988,26.7186 L122.2508,26.7186 L122.2508,31.8536 L123.0718,31.8536 L123.0718,28.7826 C123.0718,28.3236 123.2088,27.9376 123.4558,27.6966 C123.6748,27.4836 123.9768,27.3806 124.3548,27.3926 C125.2638,27.4176 125.5028,28.3126 125.5028,28.7826 L125.5028,31.8536 L126.2988,31.8536 L126.2988,28.7826 C126.2988,28.0916 126.7268,27.3926 127.5448,27.3926 C127.9478,27.3926 128.2578,27.5526 128.4658,27.8686 C128.6258,28.1116 128.7178,28.4446 128.7178,28.7826 L128.7178,31.8536 L129.5258,31.8536 L129.5258,28.4916 C129.5258,27.5516 128.8568,26.5996 127.5798,26.5996" id="Fill-19" fill="#FFFFFF"></path>
                <path d="M96.9422,28.0146 C97.1672,28.3496 97.2722,28.7306 97.2722,29.2126 C97.2722,29.7776 97.1642,30.2106 96.9422,30.5386 C96.6502,30.9676 96.2552,31.1766 95.7332,31.1766 C95.1042,31.1766 94.6432,30.9186 94.3632,30.4106 C94.1072,29.9456 94.0872,29.4146 94.0872,29.2636 C94.0872,27.8776 94.9732,27.3866 95.7332,27.3866 C96.2192,27.3866 96.6832,27.6266 96.9422,28.0146 L96.9422,28.0146 Z M93.7312,33.2896 C94.0152,33.4756 94.8132,33.9936 95.7802,33.9976 C96.5022,34.0226 97.1292,33.8096 97.5092,33.4456 C97.9212,33.0496 98.1292,32.4546 98.1292,31.6766 L98.1292,26.7226 L97.3242,26.7226 L97.3242,27.2766 C96.9682,26.8566 96.3752,26.6016 95.7312,26.6016 C95.0062,26.6016 94.4212,26.8246 93.9892,27.2626 C93.5092,27.7516 93.2522,28.4916 93.2672,29.3446 C93.2812,30.2146 93.5662,30.9196 94.0882,31.3856 C94.5162,31.7656 95.0842,31.9746 95.6882,31.9746 C96.3882,31.9746 96.9952,31.7166 97.3242,31.2886 L97.3242,31.5766 C97.3242,32.1516 97.1852,32.5786 96.9092,32.8486 C96.6522,33.0996 96.2692,33.2206 95.7712,33.2096 C95.1172,33.1946 94.2482,32.7806 93.8122,32.4536 C93.7782,32.4286 93.7312,32.4516 93.7312,32.4936 L93.7312,33.2896 Z" id="Fill-20" fill="#FFFFFF"></path>
                <path d="M132.7908,29.2861 L132.7908,29.2841 C132.7938,28.1471 133.4838,27.3851 134.5098,27.3851 C135.5368,27.3851 136.2278,28.1501 136.2288,29.2911 C136.2278,30.4321 135.5368,31.1981 134.5098,31.1981 C133.4818,31.1981 132.7918,30.4261 132.7908,29.2861 M134.5098,26.6101 C133.0198,26.6101 132.0188,27.6871 132.0188,29.2911 C132.0188,30.8951 133.0198,31.9731 134.5098,31.9731 C135.9998,31.9731 137.0008,30.8951 137.0008,29.2911 C137.0008,27.6871 135.9998,26.6101 134.5098,26.6101" id="Fill-21" fill="#FFFFFF"></path>
                <path d="M186.8494,30.0811 C186.8494,30.0341 186.7924,30.0121 186.7614,30.0461 C186.1984,30.6701 185.3384,31.1951 184.2484,31.1951 C182.6314,31.1951 181.5864,30.0781 181.5864,28.3491 C181.5864,26.5861 182.5814,25.4911 184.1854,25.4911 C185.1174,25.4911 186.0884,25.9371 186.6694,26.5411 C186.7024,26.5731 186.7564,26.5511 186.7564,26.5061 L186.7564,25.6131 C186.1014,25.0231 185.1524,24.6681 184.1854,24.6681 C183.1784,24.6681 182.3264,25.0191 181.7194,25.6851 C181.1204,26.3451 180.8024,27.2661 180.8024,28.3491 C180.8024,30.5501 182.1874,32.0281 184.2484,32.0281 C185.2324,32.0281 186.1934,31.6641 186.8494,31.0581 L186.8494,30.0811 Z" id="Fill-22" fill="#FFFFFF"></path>
                <polygon id="Fill-23" fill="#FFFFFF" points="142.8738 24.8516 142.8738 25.6166 145.2908 25.6166 145.2908 31.8466 146.1278 31.8466 146.1278 25.6166 148.5448 25.6166 148.5448 24.8516"></polygon>
                <path d="M205.3533,29.2939 C205.3533,30.2489 204.7983,31.2159 203.7393,31.2159 C202.9433,31.2159 202.0863,30.6269 202.0863,29.3339 C202.0863,28.3839 202.5873,27.3609 203.6893,27.3609 C204.9163,27.3609 205.3533,28.4019 205.3533,29.2939 L205.3533,29.2939 Z M205.3743,27.2409 C204.9423,26.7729 204.2193,26.6029 203.6993,26.6029 C203.0033,26.6029 202.3793,26.8609 201.9423,27.3319 C201.4913,27.8159 201.2533,28.4879 201.2533,29.2739 C201.2533,31.1409 202.4923,31.9759 203.7183,31.9759 C204.4353,31.9759 205.0273,31.7199 205.3743,31.2659 L205.3743,31.8569 L206.2083,31.8569 L206.2083,24.8619 L205.3743,24.8619 L205.3743,27.2409 Z" id="Fill-24" fill="#FFFFFF"></path>
                <polygon id="Fill-25" fill="#FFFFFF" points="187.957 31.856 188.804 31.856 188.804 24.862 187.957 24.862"></polygon>
                <path d="M163.5808,30.5615 C163.5808,30.5175 163.5278,30.4945 163.4958,30.5235 C162.9508,31.0155 162.1598,31.2075 161.8138,31.2075 C160.6908,31.2075 159.9658,30.4555 159.9658,29.2905 C159.9658,28.1245 160.6908,27.3725 161.8138,27.3725 C162.1608,27.3725 162.9278,27.4685 163.4968,27.9595 C163.5298,27.9885 163.5808,27.9645 163.5808,27.9215 L163.5808,27.1515 C163.2368,26.9355 162.5158,26.6015 161.7688,26.6015 C160.2188,26.6015 159.1768,27.6815 159.1768,29.2905 C159.1768,30.8975 160.2188,31.9775 161.7688,31.9775 C162.4098,31.9775 163.0388,31.8045 163.5808,31.4265 L163.5808,30.5615 Z" id="Fill-26" fill="#FFFFFF"></path>
                <path d="M152.0886,28.8076 L148.9636,28.8076 L148.9656,28.7916 C148.9986,28.3456 149.1956,27.9626 149.5336,27.6826 C149.8046,27.4586 150.1596,27.3356 150.5366,27.3356 C151.4486,27.3356 152.0426,27.8936 152.0876,28.7916 L152.0886,28.8076 Z M152.6456,30.3966 C152.6456,30.3476 152.5836,30.3276 152.5546,30.3666 C152.1826,30.8566 151.2926,31.2516 150.7456,31.2516 C150.2236,31.2516 149.7326,31.0786 149.4636,30.8016 C149.1386,30.4646 148.9616,30.0016 148.9656,29.5266 L152.8796,29.5266 L152.8796,29.4666 C152.8796,28.3636 152.6916,27.7376 152.2086,27.2346 C151.8056,26.8156 151.2506,26.6026 150.5596,26.6026 C149.0956,26.6026 148.1496,27.6506 148.1496,29.2736 C148.2026,30.9626 149.1616,31.9706 150.7166,31.9706 C151.4566,31.9706 152.0836,31.7216 152.6456,31.2316 L152.6456,30.3966 Z" id="Fill-27" fill="#FFFFFF"></path>
                <path d="M199.4724,29.334 C199.4724,30.728 198.6684,31.222 197.9804,31.222 C197.3144,31.222 196.6054,30.761 196.6054,29.905 L196.6054,26.722 L195.8084,26.722 L195.8084,29.892 C195.8084,31.119 196.6854,31.976 197.9404,31.976 C198.6344,31.976 199.1774,31.742 199.5224,31.296 L199.5224,31.855 L200.2814,31.855 L200.2814,26.722 L199.4724,26.722 L199.4724,29.334 Z" id="Fill-28" fill="#FFFFFF"></path>
                <path d="M156.1677,26.6025 C155.5267,26.6025 154.9837,26.8165 154.6197,27.2085 L154.6197,26.7185 L153.8297,26.7185 L153.8297,31.8565 L154.6377,31.8565 L154.6377,28.9285 C154.6377,28.4455 154.7857,28.0345 155.0547,27.7715 C155.3437,27.4885 155.7017,27.3565 156.1467,27.3705 C156.7787,27.3895 157.4187,27.8085 157.4187,28.7025 L157.4187,31.8565 L158.2267,31.8565 L158.2267,28.6645 C158.2267,28.0315 158.0247,27.5035 157.6457,27.1385 C157.2787,26.7885 156.7687,26.6025 156.1677,26.6025" id="Fill-29" fill="#FFFFFF"></path>
                <path d="M168.3006,28.8076 L165.1766,28.8076 L165.1786,28.7916 C165.2116,28.3456 165.4086,27.9626 165.7466,27.6826 C166.0176,27.4586 166.3726,27.3356 166.7496,27.3356 C167.6616,27.3356 168.2556,27.8936 168.3006,28.7916 L168.3006,28.8076 Z M168.8586,30.3966 C168.8586,30.3476 168.7966,30.3276 168.7676,30.3666 C168.3956,30.8566 167.5056,31.2516 166.9586,31.2516 C166.4366,31.2516 165.9456,31.0786 165.6766,30.8016 C165.3516,30.4646 165.1746,30.0016 165.1786,29.5266 L169.0916,29.5266 L169.0916,29.4666 C169.0916,28.3636 168.9046,27.7376 168.4216,27.2346 C168.0186,26.8156 167.4636,26.6026 166.7726,26.6026 C165.3086,26.6026 164.3626,27.6506 164.3626,29.2736 C164.4156,30.9626 165.3746,31.9706 166.9296,31.9706 C167.6696,31.9706 168.2966,31.7216 168.8586,31.2316 L168.8586,30.3966 Z" id="Fill-30" fill="#FFFFFF"></path>
                <path d="M172.367,26.6025 C171.726,26.6025 171.184,26.8165 170.82,27.2085 L170.82,26.7185 L170.029,26.7185 L170.029,31.8565 L170.838,31.8565 L170.838,28.9285 C170.838,28.4455 170.985,28.0345 171.254,27.7715 C171.544,27.4885 171.901,27.3565 172.346,27.3705 C172.979,27.3895 173.618,27.8085 173.618,28.7025 L173.618,31.8565 L174.426,31.8565 L174.426,28.6645 C174.426,28.0315 174.225,27.5035 173.845,27.1385 C173.479,26.7885 172.969,26.6025 172.367,26.6025" id="Fill-31" fill="#FFFFFF"></path>
                <path d="M177.0691,31.9248 C177.5591,31.8988 178.1211,31.6858 178.1211,31.6858 L178.1211,30.9118 C178.1211,30.8768 178.0871,30.8528 178.0531,30.8638 C177.8621,30.9318 177.4181,31.0698 177.1871,31.1018 C177.1031,31.1148 177.0281,31.1268 176.9721,31.0798 C176.9361,31.0488 176.9181,31.0068 176.9181,30.9168 L176.9181,27.4658 L178.3971,27.4658 L178.3971,26.7178 L176.9181,26.7178 L176.9181,25.3488 L176.0781,25.3488 L176.0781,26.7178 L175.2351,26.7178 L175.2351,27.4658 L176.0781,27.4658 L176.0781,30.9978 C176.0781,31.3018 176.1711,31.5368 176.3531,31.6968 C176.5241,31.8468 176.7721,31.9248 177.0691,31.9248" id="Fill-32" fill="#FFFFFF"></path>
                <path d="M190.6843,29.2891 L190.6833,29.2871 C190.6863,28.1501 191.3763,27.3871 192.4023,27.3871 C193.4303,27.3871 194.1213,28.1531 194.1213,29.2941 C194.1213,30.4351 193.4303,31.2011 192.4023,31.2011 C191.3743,31.2011 190.6853,30.4291 190.6843,29.2891 M192.4023,26.6121 C190.9123,26.6121 189.9113,27.6901 189.9113,29.2941 C189.9113,30.8981 190.9123,31.9761 192.4023,31.9761 C193.8923,31.9761 194.8933,30.8981 194.8933,29.2941 C194.8933,27.6901 193.8923,26.6121 192.4023,26.6121" id="Fill-33" fill="#FFFFFF"></path>
                <path d="M96.1736,4.0386 L97.9896,4.0386 C98.0706,4.0386 98.1036,3.9516 98.0686,3.8966 C98.0346,3.8466 95.7766,0.3976 95.7766,0.3976 L93.9596,0.3976 C93.8906,0.3976 93.8406,0.4766 93.8796,0.5346 C93.9176,0.5926 96.1736,4.0386 96.1736,4.0386" id="Fill-34" fill="#FFFFFF"></path>
                <polygon id="Fill-35" fill="#FFFFFF" points="115.206 2.798 128.325 2.798 128.325 1.135 115.206 1.135"></polygon>
                <polygon id="Fill-36" fill="#FFFFFF" points="80.838 15.789 89.078 15.789 89.078 14.278 80.838 14.278"></polygon>
                <path d="M76.736,5.87 L78.852,5.87 L78.852,2.282 L76.736,2.282 L76.736,5.87 Z M76.736,10.846 L78.852,10.846 L78.852,7.229 L76.736,7.229 L76.736,10.846 Z M75.225,11.481 C75.225,14.229 75.002,16.315 74.545,18.163 C74.497,18.335 74.549,18.38 74.638,18.38 L76.154,18.38 C76.659,15.841 76.726,13.735 76.735,12.207 L78.852,12.207 L78.852,16.905 L77.348,16.905 C77.275,16.905 77.219,16.953 77.257,17.058 L77.671,18.416 L80.361,18.416 L80.361,0.77 L75.225,0.77 L75.225,11.481 Z" id="Fill-37" fill="#FFFFFF"></path>
                <path d="M87.8118,6.896 C88.1738,7.492 88.5638,8.011 88.9658,8.467 L84.0198,8.467 C84.4028,8.024 84.7748,7.507 85.1218,6.896 L87.8118,6.896 Z M89.6618,6.896 L91.6908,6.896 L91.6908,5.536 L85.7788,5.536 C85.9578,5.101 86.1178,4.635 86.2638,4.13 L91.3198,4.13 L91.3198,2.77 L89.8388,2.77 C90.0858,1.93 90.3768,0.938 90.3938,0.881 C90.4228,0.78 90.3698,0.741 90.3048,0.741 L89.0188,0.741 L88.4218,2.77 L86.6038,2.77 C86.7728,1.984 86.9208,1.113 87.0548,0.136 C87.0708,0.022 87.0098,0 86.9348,0 L85.4698,0 C85.3208,1.039 85.1638,1.934 84.9628,2.77 L84.0708,2.77 L83.4748,0.741 L82.1878,0.741 C82.1238,0.741 82.0698,0.78 82.0998,0.881 C82.1168,0.938 82.4078,1.93 82.6538,2.77 L81.2118,2.77 L81.2118,4.13 L84.5808,4.13 C84.4428,4.56 84.2418,5.066 84.0268,5.536 L80.8408,5.536 L80.8408,6.896 L83.2338,6.896 C82.2698,8.266 81.2378,8.896 80.8268,9.147 L80.8268,10.704 C80.8268,10.782 80.8888,10.865 81.1348,10.726 C81.5818,10.472 82.0598,10.185 82.5428,9.828 L88.1708,9.828 L88.1238,11.864 L83.6798,11.864 L83.7478,10.646 C83.7478,10.594 83.7088,10.555 83.6558,10.555 L82.2338,10.555 L82.0908,13.132 C82.0908,13.185 82.1298,13.225 82.1838,13.225 L89.8498,13.225 L89.8498,16.902 L86.3948,16.902 C86.3218,16.902 86.2648,16.95 86.3038,17.055 L86.7178,18.413 L91.5128,18.413 L91.5128,11.864 L89.6358,11.864 L89.6968,9.22 C90.3988,9.873 91.1108,10.358 91.7588,10.726 C92.0048,10.865 92.0668,10.782 92.0668,10.704 L92.0668,9.147 C91.6558,8.896 90.6258,8.264 89.6618,6.896 L89.6618,6.896 Z" id="Fill-38" fill="#FFFFFF"></path>
                <path d="M104.161,7.753 L108.136,7.753 L108.136,2.243 L104.161,2.243 L104.161,7.753 Z M109.799,0.732 L99.354,0.732 L99.354,2.243 L102.499,2.243 L102.499,7.753 L98.895,7.753 L98.895,9.264 L102.499,9.264 L102.499,18.504 L104.161,18.504 L104.161,9.264 L108.136,9.264 L108.136,18.31 L111.275,18.31 L111.275,16.798 L109.799,16.798 L109.799,0.732 Z" id="Fill-39" fill="#FFFFFF"></path>
                <path d="M100.4085,13.2271 C100.3805,13.2481 98.9705,14.3171 97.6055,15.3511 L97.6055,5.5271 L93.7215,5.5271 L93.7215,7.1891 L95.9545,7.1891 L95.9545,16.6021 C95.4225,17.0051 95.0615,17.2781 95.0615,17.2781 L95.9735,18.4831 L100.5585,15.0101 L100.5585,13.2981 C100.5585,13.2161 100.4685,13.1821 100.4085,13.2271" id="Fill-40" fill="#FFFFFF"></path>
                <path d="M119.9636,9.0801 L130.1726,9.0801 L130.1726,7.4171 L113.3586,7.4171 L113.3586,9.0801 L118.0236,9.0801 C117.0596,11.6101 114.6416,17.9591 114.6246,18.0051 C114.5986,18.0781 114.6476,18.1331 114.7106,18.1331 L129.2136,18.1331 C129.2816,18.1331 129.3206,18.0651 129.2966,18.0011 C129.2816,17.9611 127.1346,12.3161 127.1346,12.3161 L125.3286,12.3161 C125.2606,12.3161 125.2196,12.3821 125.2426,12.4421 C125.2656,12.5021 126.7726,16.4711 126.7726,16.4711 L117.1566,16.4711 L119.9636,9.0801 Z" id="Fill-41" fill="#FFFFFF"></path>
                <path d="M139.3084,7.5361 L140.7774,7.5361 C141.1974,5.4201 141.3894,3.5201 141.4774,2.2751 L146.0014,2.2751 L146.0014,7.5361 L149.0074,7.5361 L149.0074,6.0251 L147.5134,6.0251 L147.5134,2.3641 L147.5134,0.7631 L140.7714,0.7631 L140.0374,0.7631 C140.0374,0.7631 139.9924,3.9191 139.2254,7.4321 C139.2134,7.4861 139.2534,7.5361 139.3084,7.5361" id="Fill-42" fill="#FFFFFF"></path>
                <path d="M146.0496,9.8999 C145.7546,10.9929 145.1426,12.5029 143.8776,13.8219 C142.6116,12.5029 141.9996,10.9929 141.7056,9.8999 L146.0496,9.8999 Z M145.0936,14.8659 C147.7546,12.0039 147.8436,8.3949 147.8436,8.3949 L147.2576,8.3929 L147.2576,8.3879 L140.2176,8.3879 L140.2176,8.3939 L139.9116,8.3949 C139.9116,8.3949 139.9996,12.0039 142.6616,14.8659 C141.5186,15.6719 140.0176,16.3069 138.0486,16.5669 L138.0486,18.0759 C138.0486,18.1279 138.0946,18.1689 138.1466,18.1619 C140.6456,17.8429 142.4996,17.0149 143.8776,15.9669 C145.2546,17.0149 147.1106,17.8429 149.6096,18.1619 C149.6606,18.1689 149.7066,18.1279 149.7066,18.0759 L149.7066,16.5669 C147.7376,16.3069 146.2366,15.6719 145.0936,14.8659 L145.0936,14.8659 Z" id="Fill-43" fill="#FFFFFF"></path>
                <path d="M135.6795,4.2021 L137.5545,4.2021 C137.6305,4.2021 137.6705,4.1161 137.6255,4.0541 C137.5915,4.0061 134.9905,0.4221 134.9905,0.4221 L133.1165,0.4221 C133.0475,0.4221 132.9955,0.5051 133.0405,0.5661 C133.1035,0.6531 135.6795,4.2021 135.6795,4.2021" id="Fill-44" fill="#FFFFFF"></path>
                <path d="M138.4519,11.3428 C138.4519,11.2678 138.3559,11.2158 138.2929,11.2788 C138.2719,11.3008 137.4539,12.1288 136.4829,13.1108 L136.4829,6.0168 L132.1679,6.0168 L132.1679,7.6798 L134.6699,7.6798 L134.6699,14.9468 C133.8719,15.7538 133.2589,16.3738 133.2589,16.3738 L134.4409,17.5418 L138.4519,13.4828 L138.4519,11.3428 Z" id="Fill-45" fill="#FFFFFF"></path>
                <path d="M154.9226,4.2021 L156.7976,4.2021 C156.8736,4.2021 156.9136,4.1161 156.8686,4.0541 C156.8336,4.0061 154.2336,0.4221 154.2336,0.4221 L152.3596,0.4221 C152.2906,0.4221 152.2386,0.5051 152.2836,0.5661 C152.3466,0.6531 154.9226,4.2021 154.9226,4.2021" id="Fill-46" fill="#FFFFFF"></path>
                <path d="M157.5359,11.2788 C157.5149,11.2998 156.6969,12.1288 155.7259,13.1108 L155.7259,6.0168 L151.4109,6.0168 L151.4109,7.6798 L153.9129,7.6798 L153.9129,14.9458 C153.1149,15.7538 152.5019,16.3738 152.5019,16.3738 L153.6839,17.5418 L157.6949,13.4828 L157.6949,11.3428 C157.6949,11.2678 157.5989,11.2158 157.5359,11.2788" id="Fill-47" fill="#FFFFFF"></path>
                <polygon id="Fill-48" fill="#FFFFFF" points="168.9441 6.1851 164.0041 6.1851 164.0041 0.3481 162.1901 0.3481 162.1901 6.1851 157.2511 6.1851 157.2511 7.8481 162.1901 7.8481 162.1901 18.1621 164.0041 18.1621 164.0041 7.8481 168.9441 7.8481"></polygon>
                <path d="M180.291,10.669 L185.644,10.669 L185.644,5.505 L180.291,5.505 L180.291,10.669 Z M173.176,10.669 L178.478,10.669 L178.478,5.505 L173.176,5.505 L173.176,10.669 Z M187.457,4.435 L187.444,4.435 L187.444,3.843 L180.291,3.843 L180.291,0.046 L178.477,0.046 L178.477,3.843 L171.374,3.843 L171.374,4.435 L171.362,4.435 L171.362,12.217 L171.374,12.217 L171.374,12.331 L178.477,12.331 L178.477,18.502 L180.291,18.502 L180.291,12.331 L187.444,12.331 L187.444,12.217 L187.457,12.217 L187.457,4.435 Z" id="Fill-49" fill="#FFFFFF"></path>
                <path d="M199.1345,5.2026 L201.4045,5.2026 C201.4695,5.2026 201.5105,5.1336 201.4795,5.0766 L198.9295,0.4166 L196.6585,0.4166 C196.5945,0.4166 196.5525,0.4866 196.5835,0.5436 L199.1345,5.2026 Z" id="Fill-50" fill="#FFFFFF"></path>
                <path d="M207.3699,12.6665 L204.7719,6.1855 L202.8279,6.1855 C202.7669,6.1855 202.7249,6.2465 202.7489,6.3025 L205.3459,12.7845 L207.2909,12.7845 C207.3509,12.7845 207.3919,12.7235 207.3699,12.6665" id="Fill-51" fill="#FFFFFF"></path>
                <path d="M193.407,6.1851 L191.64,6.1851 L189.826,14.3301 C189.813,14.3831 189.854,14.4341 189.909,14.4341 L191.676,14.4341 L193.491,6.2891 C193.503,6.2361 193.462,6.1851 193.407,6.1851" id="Fill-52" fill="#FFFFFF"></path>
                <path d="M204.865,13.9678 L203.06,13.9678 L202.384,16.3428 C202.085,16.3398 198.513,16.3368 196.26,16.3348 L196.26,3.8428 L194.446,3.8428 L194.446,18.1838 L203.939,18.1618 L204.948,14.0738 C204.962,14.0198 204.921,13.9678 204.865,13.9678" id="Fill-53" fill="#FFFFFF"></path>
            </g>
        </g>
    </g>
</svg>